<!DOCTYPE svg PUBLIC "-//W3C//DTD SVG 1.1//EN" "http://www.w3.org/Graphics/SVG/1.1/DTD/svg11.dtd">
<!-- Uploaded to: SVG Repo, www.svgrepo.com, Transformed by: SVG Repo Mixer Tools -->
<svg width="64px" height="64px" viewBox="0 0 1024 1024" class="icon" version="1.1" xmlns="http://www.w3.org/2000/svg" fill="#000000">
<g id="SVGRepo_bgCarrier" stroke-width="0"/>
<g id="SVGRepo_tracerCarrier" stroke-linecap="round" stroke-linejoin="round"/>
<g id="SVGRepo_iconCarrier">
<path d="M746.666667 512H533.333333a21.290667 21.290667 0 0 1-17.344-8.938667l-213.333333-298.666666A21.333333 21.333333 0 0 1 320 170.666667h85.333333c5.162667 0 10.176 1.877333 14.037334 5.290666l341.333333 298.666667A21.333333 21.333333 0 0 1 746.666667 512z" fill="#B3B3B3"/>
<path d="M405.333333 938.666667h-85.333333a21.333333 21.333333 0 0 1-17.749333-33.173334l213.333333-320A21.333333 21.333333 0 0 1 533.333333 576h234.666667a21.354667 21.354667 0 0 1 14.101333 37.333333l-362.666666 320A21.333333 21.333333 0 0 1 405.333333 938.666667z" fill="#E6E6E6"/>
<path d="M832 405.333333H234.56c-11.733333 0-26.666667-7.616-33.664-17.429333l-81.792-114.474667C112.234667 263.808 97.216 256 85.141333 256H42.858667c-11.882667 0-18.688 9.237333-15.253334 20.394667l72.789334 236.544c3.456 11.264 15.168 23.957333 25.962666 28.266666l173.952 69.589334c10.88 4.352 29.290667 7.872 40.96 7.872H832c85.333333 0 170.666667-53.333333 170.666667-106.666667s-85.333333-106.666667-170.666667-106.666667z" fill="#D8D8D8"/>
<path d="M394.666667 501.333333m-32 0a32 32 0 1 0 64 0 32 32 0 1 0-64 0Z" fill="#5B5B5B"/>
<path d="M565.333333 501.333333m-32 0a32 32 0 1 0 64 0 32 32 0 1 0-64 0Z" fill="#5B5B5B"/>
<path d="M736 501.333333m-32 0a32 32 0 1 0 64 0 32 32 0 1 0-64 0Z" fill="#5B5B5B"/>
</g>
</svg>